Reservoir.Dogs.1992.720p.BRRip.x264.ogg.mkv-anoXmous

Format                           : Matroska
File size                        : 697 MiB
Duration                         : 1h 39mn
Overall bit rate                 : 984 Kbps
Encoded date                     : UTC 2011-09-07 04:02:26
Writing application              : mkvmerge v4.9.1 ('Ich will') built on Jul 11 2011 23:53:15
Writing library                  : libebml v1.2.1 + libmatroska v1.1.1

Video
ID                               : 1
Format                           : AVC
Format/Info                      : Advanced Video Codec
Format profile                   : High@L4.1
Format settings, CABAC           : Yes
Format settings, ReFrames        : 4 frames
Codec ID                         : V_MPEG4/ISO/AVC
Duration                         : 1h 39mn
Bit rate                         : 924 Kbps
Width                            : 1 280 pixels
Height                           : 544 pixels
Display aspect ratio             : 2.35:1
Frame rate                       : 23.976 fps
Color space                      : YUV
Chroma subsampling               : 4:2:0
Bit depth                        : 8 bits
Scan type                        : Progressive
Bits/(Pixel*Frame)               : 0.055
Stream size                      : 638 MiB (92%)
Writing library                  : x264 core 116 r2074 2641b9e
Encoding settings                : cabac=1 / ref=3 / deblock=1:0:0 / analyse=0x3:0x113 
Audio
ID                               : 2
Format                           : Vorbis
Format settings, Floor           : 1
Codec ID                         : A_VORBIS
Duration                         : 1h 39mn
Bit rate mode                    : Constant
Bit rate                         : 64.0 Kbps
Channel(s)                       : 2 channels
Sampling rate                    : 48.0 KHz
Compression mode                 : Lossy
Stream size                      : 45.4 MiB (7%)
Writing library                  : aoTuV 20110424 (UTC 2011-04-24)
Language                         : English

Text
ID                               : 3
Format                           : UTF-8
Codec ID                         : S_TEXT/UTF8
Codec ID/Info                    : UTF-8 Plain Text
Language                         : Swedish
 
http://www.imdb.com/title/tt0105236/